# xmcd
#
# Track frame offsets: 
#        150
#        23548
#        38838
#        52014
#        72746
#        93629
#        108275
#        122925
#        143071
#        164451
#        180171
#
# Disc length: 2598 seconds
#
# Revision: 0
# Processed by: cddbd v1.5.1PL0 Copyright (c) Steve Scherf et al.
# Submitted via: ExactAudioCopy v0.95a5
#
DISCID=950a240b
DTITLE=Ryan Adams and the Cardinals - Cold Roses [CD2]
DYEAR=2005
DGENRE=Country
TTITLE0=Easy Plateau
TTITLE1=Let It Ride
TTITLE2=Rosebud
TTITLE3=Cold Roses
TTITLE4=If I Am A Stranger
TTITLE5=Dance All Night
TTITLE6=Blossom
TTITLE7=Life Is Beautiful
TTITLE8=Friends
TTITLE9=Tonight
TTITLE10=So Hot, So Cold
EXTD=
EXTT0=
EXTT1=
EXTT2=
EXTT3=
EXTT4=
EXTT5=
EXTT6=
EXTT7=
EXTT8=
EXTT9=
EXTT10=
PLAYORDER=
